<?xml version="1.0" encoding="utf-8"?>
<!-- Generator: Adobe Illustrator 19.1.0, SVG Export Plug-In . SVG Version: 6.00 Build 0)  -->
<svg version="1.1" id="Layer_1" xmlns="http://www.w3.org/2000/svg" xmlns:xlink="http://www.w3.org/1999/xlink" x="0px" y="0px"
	 viewBox="0 0 288 144" style="enable-background:new 0 0 288 144;" xml:space="preserve">
<style type="text/css">
	.st4{fill:#FFFFFF;stroke:#000000;stroke-width:0.5;stroke-miterlimit:10;}
	.st5{fill:#FFFFFF;stroke:#FFFFFF;stroke-width:0.1;stroke-linejoin:round;stroke-miterlimit:10;}
</style>
<g id="machine">
<path class="st4" d="M18.9,98.7l-1.2-2.3C20,95.2,75.5,66,79.3,64.2l0.6-0.3c5.4-2.6,12.7-6.2,24.9-6.2h15.4v2.6h-15.4
	c-11.5,0-18.6,3.5-23.7,6l-0.6,0.3C76.7,68.3,19.5,98.4,18.9,98.7z"/>
<path class="st4" d="M269.1,98.7l1.2-2.3c-2.4-1.2-57.8-30.4-61.6-32.3l-0.6-0.3c-5.4-2.6-12.7-6.2-24.9-6.2h-15.4v2.6h15.4
	c11.5,0,18.6,3.5,23.7,6l0.6,0.3C211.3,68.3,268.5,98.4,269.1,98.7z"/>
<path class="st4" d="M269.1,98.7"/>
<path class="st4" d="M207.6,66.5"/>
<path class="st4" d="M208.7,64.2"/>
<path class="st4" d="M270.3,96.4"/>
<rect x="111.5" y="45.7" width="65" height="27"/>
</g>
</svg>
