<?xml version="1.0" encoding="utf-8"?>
<!-- Generator: Adobe Illustrator 19.1.0, SVG Export Plug-In . SVG Version: 6.00 Build 0)  -->
<svg version="1.1" id="Layer_1" xmlns="http://www.w3.org/2000/svg" xmlns:xlink="http://www.w3.org/1999/xlink" x="0px" y="0px"
	 viewBox="0 0 108 108" style="enable-background:new 0 0 108 108;" xml:space="preserve">
<style type="text/css">
	.st6{fill:#808285;}
	.st7{fill:#FFFFFF;}
</style>
<g id="selector">
<g>
	<g>
		<path class="st6" d="M56.1,33.1c0,0-1-2.2-2.6-2.2c-1.5,0-2.6,2.2-2.6,2.2c0,12.5-6.1,21.3-6.1,21.3v1.8l8.6,3.1l8.7-3.1v-1.8
			C62.2,54.4,56.1,45.6,56.1,33.1z"/>
		<path d="M53.6,59.8l-9-3.3v-2.2l0.1-0.1c0.1-0.1,6-8.9,6-21.1l0-0.2c0-0.1,1.2-2.4,2.9-2.4s2.9,2.3,2.9,2.4l0,0.2
			c0,12.2,6,21,6,21.1l0.1,0.1v2.2L53.6,59.8z M45.3,56l8.3,3l8.3-3v-1.4c-0.7-1-6.1-9.6-6.1-21.4c-0.2-0.4-1.1-1.9-2.2-1.9
			c-1.1,0-2,1.5-2.2,1.9c0,11.7-5.4,20.3-6.1,21.4V56z"/>
	</g>
</g>
<g>
	<g>
		<path class="st6" d="M74.6,75.4c0,0,2.4,0.2,3.2-1.1S77.3,71,77.3,71c-10.6-6.6-14.9-16.4-14.9-16.4l-1.5-1l-7.2,5.7l-1.9,9l1.5,1
			C53.2,69.4,63.9,68.8,74.6,75.4z"/>
		<path d="M75,75.8c-0.3,0-0.5,0-0.5,0l-0.2-0.1c-10.4-6.4-21-6-21.1-6l-0.1,0l-1.9-1.1l2-9.4l7.5-5.9l1.9,1.1l0,0.1
			c0,0.1,4.4,9.8,14.8,16.2l0.1,0.1c0.1,0.1,1.4,2.2,0.5,3.7C77.4,75.6,75.8,75.8,75,75.8z M74.7,75c0.4,0,2.2,0.1,2.8-0.9
			c0.5-0.9-0.1-2.3-0.4-2.9C67,65.1,62.5,56,62,54.9l-1.2-0.8l-6.9,5.5l-1.8,8.6l1.2,0.8C54.5,69,64.7,68.9,74.7,75z"/>
	</g>
</g>
<g>
	<g>
		<path class="st6" d="M32,74.7c0,0-2.4,0.2-3.1-1.2c-0.8-1.3,0.6-3.3,0.6-3.3C40.3,64,44.9,54.3,44.9,54.3l1.6-0.9l7,5.9l1.6,9.1
			l-1.6,0.9C53.5,69.4,42.8,68.5,32,74.7z"/>
		<path d="M31.7,75c-0.7,0-2.5-0.1-3.2-1.4c-0.9-1.5,0.6-3.6,0.6-3.7l0.1-0.1c10.6-6.1,15.3-15.6,15.4-15.7l0-0.1l1.9-1.1l7.3,6.2
			l1.6,9.5l-1.9,1.1l-0.1,0c-0.1,0-10.7-0.8-21.3,5.2L32,75C32,75,31.9,75,31.7,75z M29.7,70.5c-0.2,0.3-1.1,1.9-0.5,2.8
			c0.5,0.9,2.1,1,2.7,1c10.2-5.8,20.4-5.4,21.6-5.3l1.3-0.7l-1.5-8.7l-6.7-5.7l-1.3,0.7C44.7,55.7,39.8,64.6,29.7,70.5z"/>
	</g>
</g>
<g>
	<circle class="st6" cx="53.6" cy="59.4" r="17.7"/>
	<path d="M53.6,77.4c-9.9,0-18-8.1-18-18s8.1-18,18-18s18,8.1,18,18S63.5,77.4,53.6,77.4z M53.6,42.1c-9.5,0-17.3,7.8-17.3,17.3
		S44,76.7,53.6,76.7s17.3-7.8,17.3-17.3S63.1,42.1,53.6,42.1z"/>
</g>
<g>
	<circle cx="53.6" cy="59.4" r="13.8"/>
	<path class="st7" d="M53.6,73.6c-7.8,0-14.2-6.4-14.2-14.2c0-7.8,6.4-14.2,14.2-14.2c7.8,0,14.2,6.4,14.2,14.2
		C67.7,67.2,61.4,73.6,53.6,73.6z M53.6,45.9c-7.4,0-13.5,6-13.5,13.5c0,7.4,6,13.5,13.5,13.5c7.4,0,13.5-6,13.5-13.5
		C67,52,61,45.9,53.6,45.9z"/>
</g>
<g>
	<circle class="st6" cx="53.6" cy="59.4" r="3.2"/>
	<path class="st7" d="M53.6,62.9c-2,0-3.5-1.6-3.5-3.5c0-2,1.6-3.5,3.5-3.5s3.5,1.6,3.5,3.5C57.1,61.3,55.5,62.9,53.6,62.9z
		 M53.6,56.6c-1.6,0-2.8,1.3-2.8,2.8c0,1.6,1.3,2.8,2.8,2.8s2.8-1.3,2.8-2.8C56.4,57.8,55.1,56.6,53.6,56.6z"/>
</g>
</g>
</svg>
