<?xml version="1.0" encoding="utf-8"?>
<!-- Generator: Adobe Illustrator 19.1.0, SVG Export Plug-In . SVG Version: 6.00 Build 0)  -->
<svg version="1.1" id="Layer_1" xmlns="http://www.w3.org/2000/svg" xmlns:xlink="http://www.w3.org/1999/xlink" x="0px" y="0px"
	 viewBox="0 0 108 108" style="enable-background:new 0 0 108 108;" xml:space="preserve">
<style type="text/css">
	.st0{fill:none;stroke:#000000;stroke-width:0.6094;stroke-miterlimit:10;}
	.st1{fill:#D1D3D4;stroke:#000000;stroke-width:0.6094;stroke-miterlimit:10;}
	.st2{fill:#808285;}
	.st3{fill:#FFFFFF;}
</style>
<g id="wheel">
<g>
	<g>
		<polygon class="st0" points="52.6,54.3 52.6,54.3 52.6,54.3 		"/>
		<rect x="52.6" y="54.3" class="st0" width="0" height="0"/>
		<rect x="52.6" y="54.3" class="st0" width="0" height="0"/>
		<polygon class="st0" points="52.6,54.3 52.6,54.3 52.6,54.3 52.6,54.3 52.6,54.3 		"/>
		<polygon class="st0" points="52.6,54.3 52.6,54.3 52.6,54.3 		"/>
		<polygon class="st0" points="52.6,54.3 52.6,54.3 52.6,54.3 		"/>
		<polygon class="st0" points="52.6,54.3 52.6,54.3 52.6,54.3 52.6,54.3 52.6,54.3 		"/>
		<rect x="52.6" y="54.3" class="st0" width="0" height="0"/>
		<polygon class="st0" points="52.6,54.3 52.6,54.3 52.6,54.3 52.6,54.3 52.6,54.3 		"/>
		<polygon class="st0" points="52.6,54.3 52.6,54.3 52.6,54.3 		"/>
		<rect x="52.6" y="54.3" class="st0" width="0" height="0"/>
		<rect x="52.6" y="54.3" class="st0" width="0" height="0"/>
		<rect x="52.6" y="54.3" class="st0" width="0" height="0"/>
		<polygon class="st0" points="52.6,54.3 52.6,54.3 52.6,54.3 52.6,54.3 52.6,54.3 		"/>
		<rect x="52.6" y="54.3" class="st0" width="0" height="0"/>
		<polygon class="st0" points="52.6,54.3 52.6,54.3 52.6,54.3 52.6,54.3 52.6,54.3 		"/>
		<rect x="52.6" y="54.3" class="st0" width="0" height="0"/>
		<rect x="52.6" y="54.3" class="st0" width="0" height="0"/>
		<rect x="52.6" y="54.3" class="st0" width="0" height="0"/>
		<rect x="52.6" y="54.3" class="st0" width="0" height="0"/>
		<polygon class="st0" points="52.6,54.3 52.6,54.3 52.6,54.3 		"/>
		<polygon class="st0" points="52.6,54.3 52.6,54.3 52.6,54.3 52.6,54.3 52.6,54.3 		"/>
		<polygon class="st0" points="52.6,54.3 52.6,54.3 52.6,54.3 		"/>
		<rect x="52.6" y="54.3" class="st0" width="0" height="0"/>
		<polygon class="st0" points="52.6,54.3 52.6,54.3 52.6,54.3 		"/>
		<polygon class="st0" points="52.6,54.3 52.6,54.3 52.6,54.3 52.6,54.3 52.6,54.3 		"/>
		<polygon class="st0" points="52.6,54.3 52.6,54.3 52.6,54.3 		"/>
		<polygon class="st0" points="52.6,54.3 52.6,54.3 52.6,54.3 		"/>
		<polygon class="st0" points="52.6,54.3 52.6,54.3 52.6,54.3 52.6,54.3 52.6,54.3 		"/>
		<polygon class="st0" points="52.6,54.3 52.6,54.3 52.6,54.3 		"/>
		<polygon class="st0" points="52.6,54.3 52.6,54.3 52.6,54.3 		"/>
		<polygon class="st0" points="52.6,54.3 52.6,54.3 52.6,54.3 		"/>
		<polygon class="st0" points="52.6,54.3 52.6,54.3 52.6,54.3 		"/>
		<rect x="52.6" y="54.3" class="st0" width="0" height="0"/>
		<polygon class="st0" points="52.6,54.3 52.6,54.3 52.6,54.3 		"/>
		<rect x="52.6" y="54.3" class="st0" width="0" height="0"/>
		<polygon class="st0" points="52.6,54.3 52.6,54.3 52.6,54.3 		"/>
		<polygon class="st0" points="52.6,54.3 52.6,54.3 52.6,54.3 		"/>
		<polygon class="st0" points="52.6,54.3 52.6,54.3 52.6,54.3 		"/>
		<polygon class="st0" points="52.6,54.3 52.6,54.3 52.6,54.3 		"/>
		<polygon class="st0" points="52.6,54.3 52.6,54.3 52.6,54.3 		"/>
		<polygon class="st0" points="52.6,54.3 52.6,54.3 52.6,54.3 		"/>
		<polygon class="st0" points="52.6,54.3 52.6,54.3 52.6,54.3 		"/>
		<polygon class="st0" points="52.6,54.3 52.6,54.3 52.6,54.3 52.6,54.3 52.6,54.3 		"/>
		<polygon class="st0" points="52.6,54.3 52.6,54.3 52.6,54.3 		"/>
		<polygon class="st0" points="52.6,54.3 52.6,54.3 52.6,54.3 		"/>
		<polygon class="st0" points="52.6,54.3 52.6,54.3 52.6,54.3 		"/>
		<polygon class="st0" points="52.6,54.3 52.6,54.3 52.6,54.3 		"/>
		<rect x="52.6" y="54.3" class="st0" width="0" height="0"/>
		<rect x="52.6" y="54.3" class="st0" width="0" height="0"/>
		<polygon class="st0" points="52.6,54.3 52.6,54.3 52.6,54.3 52.6,54.3 52.6,54.3 		"/>
		<polygon class="st0" points="52.6,54.3 52.6,54.3 52.6,54.3 		"/>
		<polygon class="st0" points="52.6,54.3 52.6,54.3 52.6,54.3 		"/>
		<rect x="52.6" y="54.3" class="st0" width="0" height="0"/>
		<polygon class="st0" points="52.6,54.3 52.6,54.3 52.6,54.3 52.6,54.3 52.6,54.3 		"/>
		<polygon class="st0" points="52.6,54.3 52.6,54.3 52.6,54.3 		"/>
		<rect x="52.6" y="54.3" class="st0" width="0" height="0"/>
		<polygon class="st0" points="52.6,54.3 52.6,54.3 52.6,54.3 		"/>
		<polygon class="st0" points="52.6,54.3 52.6,54.3 52.6,54.3 		"/>
		<rect x="52.6" y="54.3" class="st0" width="0" height="0"/>
		<polygon class="st0" points="52.6,54.3 52.6,54.3 52.6,54.3 		"/>
		<rect x="52.6" y="54.3" class="st0" width="0" height="0"/>
		<rect x="52.6" y="54.3" class="st0" width="0" height="0"/>
		<g>
			<path d="M52.6,54.3L52.6,54.3L52.6,54.3l12.6-34.6c-2-0.7-4.1-1.2-6.2-1.6L52.6,54.3L52.6,54.3z"/>
			<path d="M52.9,54.4l-0.6-0.2l6.4-36.5l0.3,0c2.1,0.3,4.2,0.9,6.3,1.6l0.3,0.1l-0.1,0.3L52.9,54.4z M59.2,18.4l-5.7,32.5
				l11.3-31.1C63,19.2,61.1,18.7,59.2,18.4z"/>
		</g>
		<path class="st1" d="M52.6,54.3L24.9,31c-1.3,1.6-2.5,3.4-3.6,5.2L52.6,54.3L52.6,54.3z"/>
		<g>
			<path d="M52.6,54.3L52.6,54.3L21.3,36.2c-1,1.8-1.9,3.7-2.6,5.7L52.6,54.3L52.6,54.3z"/>
			<path d="M52.5,54.5L18.3,42.1l0.1-0.3c0.7-2,1.6-3.9,2.6-5.8l0.2-0.3L52.7,54L52.5,54.5z M19.1,41.7l30.4,11l-28-16.2
				C20.5,38.3,19.7,40,19.1,41.7z"/>
		</g>
		<path class="st1" d="M52.6,54.3L52.6,54.3L34.4,22.8c-1.8,1.1-3.5,2.3-5.1,3.7L52.6,54.3L52.6,54.3z"/>
		<g>
			<path d="M29.3,26.5c-1.6,1.4-3.1,2.9-4.4,4.5l27.7,23.3L29.3,26.5z"/>
			<path d="M52.4,54.5L24.4,31l0.2-0.2c1.3-1.6,2.8-3.1,4.5-4.5l0.2-0.2l0.2,0.2l23.3,27.8L52.4,54.5z M25.3,31l24.8,20.8L29.2,26.9
				C27.8,28.2,26.5,29.5,25.3,31z"/>
		</g>
		<path class="st1" d="M52.6,54.3H16.5c0,2.1,0.2,4.2,0.5,6.3L52.6,54.3L52.6,54.3z"/>
		<g>
			<path d="M52.6,54.3L17.1,48c-0.4,2-0.5,4.1-0.5,6.3L52.6,54.3L52.6,54.3z"/>
			<path d="M52.6,54.6H16.2v-0.3c0-2.1,0.2-4.2,0.5-6.3l0.1-0.3l0.3,0.1L52.6,54L52.6,54.6z M16.8,54h32.3l-31.8-5.6
				C17,50.2,16.8,52.1,16.8,54z"/>
		</g>
		<path class="st1" d="M18.7,41.9c-0.7,2-1.2,4-1.6,6.1l35.5,6.3L18.7,41.9z"/>
		<path class="st1" d="M52.6,54.3L59,18c-1.9-0.3-3.8-0.5-5.8-0.5c-0.2,0-0.4,0-0.6,0V54.3L52.6,54.3z"/>
		<g>
			<path d="M52.6,54.3L52.6,54.3L40.1,20c-2,0.8-3.9,1.7-5.7,2.8L52.6,54.3L52.6,54.3z"/>
			<path d="M52.3,54.4L34,22.7l0.3-0.2c1.8-1.1,3.8-2,5.8-2.8l0.3-0.1l0.1,0.3l12.5,34.3L52.3,54.4z M34.8,22.9l16.3,28.2L39.9,20.4
				C38.2,21.1,36.4,21.9,34.8,22.9z"/>
		</g>
		<path class="st1" d="M81,30.4c-1.4-1.6-2.9-3.2-4.6-4.5L52.6,54.3L81,30.4z"/>
		<path class="st1" d="M71.1,22.2c-1.9-1-3.8-1.9-5.9-2.6L52.6,54.3L71.1,22.2z"/>
		<g>
			<path d="M52.6,54.3L52.6,54.3l23.8-28.4c-1.7-1.4-3.4-2.6-5.3-3.6L52.6,54.3L52.6,54.3z"/>
			<path d="M52.8,54.5l-0.5-0.3l18.6-32.3l0.3,0.1c1.9,1.1,3.7,2.3,5.4,3.7l0.2,0.2L52.8,54.5z M71.2,22.7L54.6,51.4L76,25.9
				C74.5,24.7,72.9,23.6,71.2,22.7z"/>
		</g>
		<path class="st1" d="M46.2,18.3c-2.1,0.4-4.2,1-6.1,1.7l12.5,34.3L46.2,18.3z"/>
		<g>
			<path d="M52.6,54.3V17.6c-2.2,0-4.3,0.3-6.3,0.7L52.6,54.3L52.6,54.3z"/>
			<path d="M52.3,54.3L45.9,18l0.3-0.1c2.1-0.4,4.2-0.6,6.4-0.7l0.3,0v37L52.3,54.3z M46.6,18.5l5.7,32.3V17.9
				C50.4,18,48.4,18.2,46.6,18.5z"/>
		</g>
		<g>
			<path d="M52.6,54.3L52.6,54.3l-35.5,6.3c0.4,2.1,0.9,4.1,1.6,6.1L52.6,54.3L52.6,54.3z"/>
			<path d="M18.5,67l-0.1-0.3c-0.7-2-1.2-4-1.6-6.1l-0.1-0.3L52.5,54l0.2,0.6L18.5,67z M17.4,60.8c0.3,1.9,0.8,3.7,1.4,5.4l30.4-11
				L17.4,60.8z"/>
		</g>
		<g>
			<path d="M52.6,54.3v36.6c0.2,0,0.4,0,0.6,0c2,0,3.9-0.2,5.8-0.5L52.6,54.3L52.6,54.3z"/>
			<path d="M53.2,91.2c-0.1,0-0.2,0-0.4,0l-0.6,0v-37l0.6-0.1l6.4,36.5l-0.3,0C57.1,91.1,55.1,91.2,53.2,91.2z M52.9,90.6
				c0.1,0,0.2,0,0.3,0c1.8,0,3.6-0.1,5.4-0.4l-5.7-32.5V90.6z"/>
		</g>
		<path class="st1" d="M52.6,54.3l18.5,32c1.9-1.1,3.7-2.3,5.3-3.6L52.6,54.3L52.6,54.3z"/>
		<g>
			<path d="M52.6,54.3L52.6,54.3l23.8,28.4c1.7-1.4,3.2-2.9,4.6-4.5L52.6,54.3L52.6,54.3z"/>
			<path d="M76.4,83.1l-24-28.6l0.4-0.4l28.7,24.1l-0.2,0.2c-1.4,1.7-3,3.2-4.7,4.6L76.4,83.1z M55.1,56.7l21.4,25.5
				c1.5-1.2,2.9-2.6,4.1-4.1L55.1,56.7z"/>
		</g>
		<path class="st1" d="M52.6,54.3L18.7,66.6c0.7,2,1.6,3.9,2.6,5.7L52.6,54.3L52.6,54.3z"/>
		<path class="st1" d="M52.6,54.3L52.6,54.3L59,90.5c2.1-0.3,4.2-0.9,6.2-1.6L52.6,54.3L52.6,54.3z"/>
		<path class="st1" d="M52.6,54.3L52.6,54.3L52.6,54.3l35,12.7c0.7-2,1.3-4.1,1.7-6.3L52.6,54.3z"/>
		<g>
			<path d="M84.8,72.9c1.1-1.9,2-3.8,2.8-5.9l-35-12.7L84.8,72.9z"/>
			<path d="M84.9,73.3L52.4,54.5l0.3-0.5L88,66.8l-0.1,0.3c-0.8,2-1.7,4-2.8,5.9L84.9,73.3z M55.7,55.7l28.9,16.7
				c1-1.7,1.8-3.5,2.5-5.3L55.7,55.7z"/>
		</g>
		<path class="st1" d="M52.6,54.3L81,78.1c1.4-1.6,2.7-3.4,3.8-5.3L52.6,54.3L52.6,54.3z"/>
		<g>
			<path d="M65.2,88.9c2-0.7,4-1.6,5.9-2.6l-18.5-32L65.2,88.9z"/>
			<path d="M65,89.3L52.3,54.4l0.5-0.3l18.6,32.3l-0.3,0.2c-1.9,1.1-3.9,1.9-5.9,2.7L65,89.3z M54.1,57.4l11.3,31.1
				c1.8-0.6,3.6-1.4,5.3-2.4L54.1,57.4z"/>
		</g>
		<g>
			<path d="M29.3,82c1.6,1.4,3.3,2.6,5.1,3.7l18.2-31.5L29.3,82z"/>
			<path d="M34.5,86.2L34.2,86c-1.8-1.1-3.5-2.3-5.2-3.7l-0.2-0.2l23.5-28l0.5,0.3L34.5,86.2z M29.7,82c1.5,1.2,3,2.3,4.6,3.3
				l16.3-28.2L29.7,82z"/>
		</g>
		<path class="st1" d="M52.6,54.3L52.6,54.3L24.9,77.5c1.3,1.6,2.8,3.1,4.4,4.5L52.6,54.3L52.6,54.3z"/>
		<g>
			<path d="M52.6,54.3L52.6,54.3l32.2-18.6c-1.1-1.9-2.4-3.6-3.8-5.3L52.6,54.3L52.6,54.3z"/>
			<path d="M52.7,54.5L52.4,54L81.1,30l0.2,0.2c1.4,1.7,2.7,3.4,3.8,5.3l0.2,0.3L52.7,54.5z M81,30.8L55.4,52.3l28.9-16.7
				C83.4,33.9,82.2,32.3,81,30.8z"/>
		</g>
		<g>
			<path d="M21.3,72.3c1,1.8,2.2,3.6,3.6,5.2l27.7-23.3L21.3,72.3z"/>
			<path d="M24.8,78l-0.2-0.2c-1.3-1.6-2.5-3.4-3.6-5.2l-0.1-0.3L52.4,54l0.3,0.5L24.8,78z M21.7,72.4c1,1.6,2,3.2,3.2,4.7
				l24.8-20.8L21.7,72.4z"/>
		</g>
		<path class="st1" d="M52.6,54.3l-6.3,36c2.1,0.4,4.2,0.6,6.3,0.7V54.3L52.6,54.3z"/>
		<path class="st1" d="M52.6,54.3L34.4,85.7c1.8,1.1,3.7,2,5.7,2.8L52.6,54.3L52.6,54.3z"/>
		<g>
			<path d="M40.1,88.5c2,0.8,4,1.3,6.1,1.7l6.3-36L40.1,88.5z"/>
			<path d="M46.5,90.6l-0.3-0.1c-2.1-0.4-4.2-1-6.2-1.8l-0.3-0.1l12.6-34.5l0.6,0.2L46.5,90.6z M40.5,88.3c1.8,0.7,3.6,1.2,5.5,1.6
				l5.7-32.3L40.5,88.3z"/>
		</g>
		<polygon class="st0" points="52.6,54.3 52.6,54.3 52.6,54.3 		"/>
		<polygon class="st0" points="52.6,54.3 52.6,54.3 52.6,54.3 		"/>
		<polygon class="st0" points="52.6,54.3 52.6,54.3 52.6,54.3 		"/>
		<rect x="52.6" y="54.3" class="st0" width="0" height="0"/>
		<polygon class="st0" points="52.6,54.3 52.6,54.3 52.6,54.3 		"/>
		<polygon class="st0" points="52.6,54.3 52.6,54.3 52.6,54.3 		"/>
		<rect x="52.6" y="54.3" class="st0" width="0" height="0"/>
		<rect x="52.6" y="54.3" class="st0" width="0" height="0"/>
		<polygon class="st0" points="52.6,54.3 52.6,54.3 52.6,54.3 		"/>
		<rect x="52.6" y="54.3" class="st0" width="0" height="0"/>
		<rect x="52.6" y="54.3" class="st0" width="0" height="0"/>
		<rect x="52.6" y="54.3" class="st0" width="0" height="0"/>
		<polygon class="st0" points="52.6,54.3 52.6,54.3 52.6,54.3 		"/>
		<polygon class="st0" points="52.6,54.3 52.6,54.3 52.6,54.3 		"/>
		<rect x="52.6" y="54.3" class="st0" width="0" height="0"/>
		<rect x="52.6" y="54.3" class="st0" width="0" height="0"/>
		<polygon class="st0" points="52.6,54.3 52.6,54.3 52.6,54.3 52.6,54.3 52.6,54.3 		"/>
		<polygon class="st0" points="52.6,54.3 52.6,54.3 52.6,54.3 		"/>
		<polygon class="st0" points="52.6,54.3 52.6,54.3 52.6,54.3 		"/>
		<polygon class="st0" points="52.6,54.3 52.6,54.3 52.6,54.3 		"/>
		<path class="st1" d="M52.6,54.3h37.3c0-2.2-0.2-4.4-0.6-6.5L52.6,54.3L52.6,54.3z"/>
		<g>
			<path d="M89.3,47.8c-0.4-2.2-1-4.3-1.7-6.3l-35,12.7L89.3,47.8z"/>
			<path d="M52.6,54.6L52.5,54l35.3-12.8l0.1,0.3c0.7,2,1.3,4.1,1.7,6.3l0.1,0.3L52.6,54.6z M87.4,41.9L56,53.4l33-5.8
				C88.6,45.6,88,43.7,87.4,41.9z"/>
		</g>
		<polygon class="st0" points="52.6,54.3 52.6,54.3 52.6,54.3 		"/>
		<g>
			<path d="M52.6,54.3l36.7,6.5c0.4-2.1,0.6-4.3,0.6-6.5H52.6L52.6,54.3z"/>
			<path d="M89.5,61.1l-37-6.5l0.1-0.6h37.6v0.3c0,2.2-0.2,4.3-0.6,6.5L89.5,61.1z M56.1,54.6l33,5.8c0.3-1.9,0.5-3.9,0.5-5.8H56.1z
				"/>
		</g>
		<rect x="52.6" y="54.3" class="st0" width="0" height="0"/>
		<polygon class="st0" points="52.6,54.3 52.6,54.3 52.6,54.3 		"/>
		<rect x="52.6" y="54.3" class="st0" width="0" height="0"/>
		<polygon class="st0" points="52.6,54.3 52.6,54.3 52.6,54.3 		"/>
		<polygon class="st0" points="52.6,54.3 52.6,54.3 52.6,54.3 		"/>
		<polygon class="st0" points="52.6,54.3 52.6,54.3 52.6,54.3 52.6,54.3 52.6,54.3 		"/>
		<path class="st1" d="M52.6,54.3l35-12.7c-0.8-2-1.7-4-2.8-5.9L52.6,54.3L52.6,54.3z"/>
	</g>
	<path class="st2" d="M53.2,84.4c-16.6,0-30.1-13.5-30.1-30.1c0-16.6,13.5-30.1,30.1-30.1s30.1,13.5,30.1,30.1
		C83.3,70.9,69.8,84.4,53.2,84.4z M53.2,24.9c-16.2,0-29.4,13.2-29.4,29.4c0,16.2,13.2,29.4,29.4,29.4c16.2,0,29.4-13.2,29.4-29.4
		C82.6,38.1,69.4,24.9,53.2,24.9z"/>
	<path d="M53.2,91.9c-20.8,0-37.6-16.9-37.6-37.6s16.9-37.6,37.6-37.6c20.8,0,37.6,16.9,37.6,37.6S73.9,91.9,53.2,91.9z M53.2,18.6
		c-19.7,0-35.7,16-35.7,35.7S33.5,90,53.2,90c19.7,0,35.7-16,35.7-35.7S72.9,18.6,53.2,18.6z"/>
	<g>
		<circle class="st3" cx="53.2" cy="54.3" r="24.5"/>
		<path class="st2" d="M53.2,79.1c-13.7,0-24.8-11.1-24.8-24.8s11.1-24.8,24.8-24.8C66.9,29.4,78,40.6,78,54.3S66.9,79.1,53.2,79.1z
			 M53.2,30.2c-13.3,0-24.1,10.8-24.1,24.1s10.8,24.1,24.1,24.1c13.3,0,24.1-10.8,24.1-24.1S66.5,30.2,53.2,30.2z"/>
	</g>
	<path class="st2" d="M53.2,90.8c-20.1,0-36.5-16.4-36.5-36.5s16.4-36.5,36.5-36.5c20.1,0,36.5,16.4,36.5,36.5S73.3,90.8,53.2,90.8z
		 M53.2,18.5c-19.7,0-35.8,16-35.8,35.8S33.5,90,53.2,90C72.9,90,89,74,89,54.3S72.9,18.5,53.2,18.5z"/>
</g>
</g>
</svg>
